mtllib materials.mtl
v 0.4250001 -0.4599997 0.4250002
v -0.4250001 -0.4599999 0.4250001
v -0.4250002 -0.4499999 0.4250002
v 5.960464E-08 -0.4499999 0.4250003
v 0.4250003 -0.4499998 0.4250003
v 0.4250003 -0.4599996 -0.4250001
v 0.4250004 -0.4499996 -0.4250002
v 1.192093E-07 -0.4499997 -0.4250003
v -0.4250002 -0.4499998 -0.4250003
v -0.4250001 -0.4599997 -0.4250002
v 0.4250003 -0.4599996 0
v -5.960464E-08 0.1399999 0.03327626
v 0.03327608 0.1399999 0.0332762
v 0.4250005 -0.4499997 5.960464E-08
v -0.4250003 -0.4499999 -5.960464E-08
v -0.0332762 0.1399999 1.192093E-07
v -0.0332762 0.1399999 0.03327632
v -5.960464E-08 0.1399999 -0.03327608
v -0.0332762 0.1399999 -0.03327608
v 0.03327608 0.1399999 0
v 0.03327608 0.1399999 -0.03327614
v 0.02999991 0.1399999 0.03000003
v -0.03000003 0.1399999 0.03000003
v -0.03000003 0.1499999 0.03000003
v 0.02999991 0.1499999 0.03000003
v 0.02999991 0.1399999 -0.02999991
v 0.02999991 0.1499999 -0.02999991
v -0.03000003 0.1499999 -0.02999991
v -0.03000003 0.1399999 -0.02999991
v -0.005223811 0.1799999 0.00522387
v 0.005223751 0.1799999 0.005223811
v -0.005223811 0.1799999 -0.005223751
v 0.005223751 0.1799999 -0.005223751
vn -1.19207E-07 -1.150952E-05 1
vn 1.192132E-07 -1.759157E-05 -1
vn 9.275118E-08 -1 -1.84585E-07
vn -9.008772E-08 0.5531261 0.8330976
vn 1 -1.778883E-05 4.206952E-08
vn -1 -1.499408E-05 -3.330814E-08
vn -0.8330977 0.5531262 7.744269E-08
vn -9.210641E-08 0.5531264 -0.8330975
vn 0.8330974 0.5531265 2.285395E-07
vn -9.275118E-08 1 1.84585E-07
vn -9.210641E-08 0.5531264 -0.8330975
vn -0.8330977 0.5531262 7.744269E-08
vn -9.008772E-08 0.5531261 0.8330976
vn 0.8330974 0.5531265 2.285395E-07
vn 1 -1.778883E-05 4.206952E-08
vn -3.576279E-07 -1.748456E-07 1
vn 3.576279E-07 1.748456E-07 -1
vn 2.842171E-14 -1 -1.748456E-07
vn 6.69337E-07 0.6367823 0.7710436
vn 1 -7.105427E-15 3.576279E-07
vn -1 7.105427E-15 -3.576279E-07
vn -0.7710434 0.6367827 1.042477E-08
vn -1.038706E-08 0.6367819 -0.7710441
vn 0.7710442 0.6367818 -3.502107E-08
vn -2.842171E-14 1 1.748456E-07
usemtl mat18
f 5//1 4//1 3//1 2//1 1//1
f 10//2 9//2 8//2 7//2 6//2
f 2//3 10//3 6//3 11//3 1//3
f 13//4 12//4 4//4 5//4
f 11//5 14//5 5//5 1//5
f 3//6 15//6 9//6 10//6 2//6
f 17//7 16//7 15//7 3//7
f 19//8 18//8 8//8 9//8
f 21//9 20//9 14//9 7//9
f 20//10 21//10 18//10 19//10 16//10 17//10 12//10 13//10
f 18//11 21//11 7//11 8//11
f 16//12 19//12 9//12 15//12
f 12//13 17//13 3//13 4//13
f 20//14 13//14 5//14 14//14
f 11//15 6//15 7//15 14//15
f 25//16 24//16 23//16 22//16
f 29//17 28//17 27//17 26//17
f 23//18 29//18 26//18 22//18
f 31//19 30//19 24//19 25//19
f 26//20 27//20 25//20 22//20
f 24//21 28//21 29//21 23//21
f 30//22 32//22 28//22 24//22
f 32//23 33//23 27//23 28//23
f 33//24 31//24 25//24 27//24
f 33//25 32//25 30//25 31//25
